<svg version="1.1" xmlns="http://www.w3.org/2000/svg" xmlns:xlink="http://www.w3.org/1999/xlink" preserveAspectRatio="xMidYMid meet" viewBox="0 0 640 640" width="640" height="640"><defs><path d="M211.02 274.57C207.99 275.39 205.69 277.6 205 280.38C204.02 284.28 196.16 315.46 195.18 319.36C178.89 382.85 214.36 447.91 280.27 475.4C280.78 475.61 284.87 477.34 285.38 477.56C289.77 479.41 294.99 477.73 297.05 473.8C325.51 419.76 312.15 355.46 263.89 314.24C255.04 306.67 224.04 280.2 219.62 276.41C217.33 274.46 214.05 273.75 211.02 274.57Z" id="c6XiSsuPy"></path><path d="M216.11 326.04C215.87 320.95 213.95 280.23 213.71 275.14C209.3 274.67 205.37 276.86 204.39 280.33C203.28 284.03 194.41 313.6 193.31 317.29C174.9 377.49 211.38 443.51 280.79 475.64C281.32 475.89 285.64 477.91 286.17 478.16C288.09 479.03 290.26 479.34 292.3 479.04C284.4 468.27 260.68 435.93 252.77 425.16C230.39 394.65 217.75 360.46 216.11 326.04Z" id="c4hnYtWVKA"></path><path d="M522.9 451.75C604.17 404.91 646.49 343.96 620.79 310.75C620.72 310.65 620.36 310.19 619.72 309.35C616.31 307.7 614.41 306.79 614.04 306.61C612.3 305.75 608.86 306.25 605.52 307.84C602.17 309.43 599.68 311.75 599.33 313.61C599.25 314.09 598.48 317.96 598.39 318.45C593.89 341.64 581.86 367 562.86 393.35C559.05 398.64 528.58 440.94 524.78 446.23C524.56 446.57 524.41 446.89 524.31 447.2C524.3 447.2 524.27 447.21 524.2 447.23C524.06 447.57 523.35 449.23 522.08 452.22C522.59 451.93 522.86 451.77 522.9 451.75Z" id="aXQCNrm9v"></path><path d="M512.67 469.45C607.37 423.05 659.56 354.39 633.4 310.62C633.33 310.49 632.96 309.89 632.31 308.78C628.62 306.33 626.57 304.97 626.16 304.71C624.28 303.43 620.4 303.6 616.52 305.09C612.66 306.6 609.68 309.09 609.15 311.3C609.01 311.88 607.85 316.49 607.71 317.07C600.84 344.71 585.37 374 562.02 403.6C557.33 409.53 519.89 457.04 515.21 462.98C514.94 463.36 514.74 463.74 514.61 464.1C514.6 464.1 514.56 464.11 514.49 464.13C514.3 464.51 513.38 466.44 511.72 469.92C512.31 469.63 512.63 469.47 512.67 469.45Z" id="i2j3DMjPj7"></path><path d="M580.66 220.3C575.78 219.09 571.98 215.45 571.54 211.54C570.7 203.61 563.98 140.14 563.14 132.21C560 102.57 563.28 73.67 572.85 46.78C573.59 44.73 579.44 28.27 580.16 26.21C581.24 23.19 584.66 21.32 588.83 21.5C593 21.69 597.09 23.86 599.2 27.02C628.87 71.47 635.18 120.52 616.53 161.71C611.57 172.65 594.23 210.95 591.76 216.42C590.19 219.86 585.56 221.48 580.66 220.3Z" id="j1j9lG6LSj"></path><path d="M404.75 228.97C402.56 229.5 400.86 231.08 400.28 233.11C399.47 235.97 392.97 258.83 392.15 261.69C378.69 308.2 402.13 357.11 448.36 378.98C448.72 379.16 451.59 380.53 451.96 380.71C455.03 382.17 458.8 381.05 460.4 378.2C482.26 338.95 474.59 291.12 441.34 259.53C435.24 253.72 413.88 233.42 410.84 230.53C409.26 229.03 406.93 228.42 404.75 228.97Z" id="cCJvMS8TF"></path><path d="M405.17 266.46C405.18 262.9 405.3 234.4 405.32 230.84C402.35 230.07 399.61 231.18 398.84 233.5C397.95 235.94 390.93 255.59 390.05 258.06C375.51 298.02 397.88 347.63 443.71 377.05C444.06 377.28 446.91 379.11 447.26 379.35C448.52 380.14 449.98 380.58 451.38 380.58C446.41 372.29 431.48 347.4 426.52 339.1C412.44 315.61 405.08 290.55 405.17 266.46Z" id="bXZep75xK"></path><path d="M552.22 428.08C549.06 430.12 523.88 446.42 520.74 448.46C521.68 451.29 524.17 452.83 526.64 452.13C529.28 451.42 550.46 445.75 553.11 445.04C596.32 433.7 627.75 387.24 628.51 333.58C628.51 333.17 628.57 329.83 628.57 329.41C628.58 327.94 628.17 326.52 627.4 325.4C622.82 334.15 609.08 360.44 604.5 369.19C591.54 393.99 573.5 414.29 552.22 428.08Z" id="f5W9MtP2mQ"></path><path d="M606.17 81.08C605.63 76.82 601.37 42.74 600.85 38.48C603.8 37.41 606.78 38.61 607.93 41.34C609.19 44.24 619.3 67.4 620.57 70.29C641.38 117.37 625.47 177.79 582.42 215.18C582.09 215.48 579.42 217.82 579.08 218.11C577.89 219.13 576.45 219.72 575 219.79C578.93 209.63 590.74 179.13 594.67 168.97C605.79 140.2 609.75 109.89 606.17 81.08Z" id="b1fL49EdSL"></path><path d="M640 200L580 220L520 440L460 380L400 480L364.14 400L300 480L242.46 500L180 580L140 500L80 600L20 620" id="fC5EK552r"></path></defs><g><g><g><use xlink:href="#c6XiSsuPy" opacity="1" fill="#5fa819" fill-opacity="1"></use><g><use xlink:href="#c6XiSsuPy" opacity="1" fill-opacity="0" stroke="#000000" stroke-width="1" stroke-opacity="0"></use></g></g><g><use xlink:href="#c4hnYtWVKA" opacity="1" fill="#589c17" fill-opacity="1"></use><g><use xlink:href="#c4hnYtWVKA" opacity="1" fill-opacity="0" stroke="#000000" stroke-width="1" stroke-opacity="0"></use></g></g><g><use xlink:href="#aXQCNrm9v" opacity="1" fill="#589c17" fill-opacity="1"></use><g><use xlink:href="#aXQCNrm9v" opacity="1" fill-opacity="0" stroke="#000000" stroke-width="1" stroke-opacity="0"></use></g></g><g><use xlink:href="#i2j3DMjPj7" opacity="1" fill="#000000" fill-opacity="0"></use><g><use xlink:href="#i2j3DMjPj7" opacity="1" fill-opacity="0" stroke="#000000" stroke-width="1" stroke-opacity="0"></use></g></g><g><use xlink:href="#j1j9lG6LSj" opacity="1" fill="#5fa819" fill-opacity="1"></use><g><use xlink:href="#j1j9lG6LSj" opacity="1" fill-opacity="0" stroke="#000000" stroke-width="1" stroke-opacity="0"></use></g></g><g><use xlink:href="#cCJvMS8TF" opacity="1" fill="#5fa819" fill-opacity="1"></use><g><use xlink:href="#cCJvMS8TF" opacity="1" fill-opacity="0" stroke="#000000" stroke-width="1" stroke-opacity="0"></use></g></g><g><use xlink:href="#bXZep75xK" opacity="1" fill="#508f14" fill-opacity="1"></use><g><use xlink:href="#bXZep75xK" opacity="1" fill-opacity="0" stroke="#000000" stroke-width="1" stroke-opacity="0"></use></g></g><g><use xlink:href="#f5W9MtP2mQ" opacity="1" fill="#4d8d0f" fill-opacity="1"></use><g><use xlink:href="#f5W9MtP2mQ" opacity="1" fill-opacity="0" stroke="#000000" stroke-width="1" stroke-opacity="0"></use></g></g><g><use xlink:href="#b1fL49EdSL" opacity="1" fill="#4e8916" fill-opacity="1"></use><g><use xlink:href="#b1fL49EdSL" opacity="1" fill-opacity="0" stroke="#000000" stroke-width="1" stroke-opacity="0"></use></g></g><g><g><use xlink:href="#fC5EK552r" opacity="1" fill-opacity="0" stroke="#133b07" stroke-width="14" stroke-opacity="1"></use></g></g></g></g></svg>