<svg version="1.1" xmlns="http://www.w3.org/2000/svg" xmlns:xlink="http://www.w3.org/1999/xlink" preserveAspectRatio="xMidYMid meet" viewBox="0 0 640 640" width="640" height="640"><defs><path d="M138.7 195.94C135.92 193.29 131.93 192.33 128.24 193.44C124.56 194.56 121.76 197.56 120.92 201.32C119.73 206.61 110.18 248.91 108.98 254.2C89.17 340.32 132.31 428.56 212.45 465.84C213.07 466.13 218.05 468.48 218.67 468.77C224 471.28 230.35 469 232.86 463.67C267.47 390.38 251.22 303.16 192.54 247.25C181.77 236.99 144.08 201.08 138.7 195.94Z" id="a29kMfCqQ8"></path><path d="M176.25 397.02C150.23 356.16 135.53 310.37 133.63 264.26C133.35 257.45 131.12 202.91 130.84 196.09C125.71 195.46 121.14 198.39 120 203.04C118.71 207.99 108.39 247.6 107.11 252.55C85.71 333.17 128.13 421.6 208.83 464.63C209.45 464.97 214.47 467.67 215.09 468.01C217.32 469.17 219.84 469.59 222.22 469.19C213.03 454.76 185.45 411.45 176.25 397.02Z" id="e1XphkWZW"></path><path d="M409.8 401.95C410.42 401.79 410.76 401.7 410.83 401.68C512.83 374.93 577.57 317.95 560.59 269.87C560.54 269.73 560.3 269.06 559.88 267.85C556.75 264.72 555.01 262.98 554.66 262.64C553.07 261.02 549.23 260.41 545.14 261.11C541.05 261.82 537.64 263.68 536.68 265.74C536.43 266.28 534.38 270.57 534.13 271.11C521.93 296.84 500.97 322.5 472.23 346.89C466.46 351.78 420.36 390.94 414.6 395.84C414.26 396.16 413.99 396.49 413.79 396.82C413.78 396.82 413.74 396.82 413.66 396.82L409.8 401.95Z" id="d7eWoJBDl"></path><path d="M467.39 252.61L408.7 389.57L386.52 358.26L360.43 457.39L352.61 414.35L267.83 505.65L223.48 470.43L65.65 587.83" id="a1KuUovrp7"></path><path d="M474.19 258.96C472.57 262.38 467.92 263.93 463.03 262.67C458.17 261.39 454.43 257.69 454.05 253.77C453.33 245.83 447.58 182.27 446.86 174.32C444.17 144.64 447.89 115.79 457.87 89.05C458.64 87.01 464.74 70.65 465.5 68.6C466.62 65.59 470.07 63.78 474.24 64.02C478.4 64.27 482.46 66.5 484.52 69.7C513.51 114.59 519.07 163.73 499.79 204.64C494.67 215.5 476.75 253.53 474.19 258.96Z" id="a8tRvXnl9"></path><path d="M350.5 234.41C349.31 233.27 347.6 232.86 346.02 233.35C344.44 233.83 343.24 235.13 342.87 236.75C342.35 239.03 338.21 257.26 337.69 259.54C329.09 296.65 347.47 334.6 381.76 350.55C382.03 350.68 384.16 351.68 384.43 351.81C386.71 352.88 389.43 351.89 390.52 349.59C405.44 317.98 398.59 280.44 373.51 256.44C368.91 252.03 352.8 236.61 350.5 234.41Z" id="a3yQDvwYD6"></path><path d="M368.61 318.95C357.07 301.3 350.42 282.07 349.32 263.22C349.16 260.44 347.87 238.14 347.71 235.35C345.48 234.9 343.51 235.91 343.05 237.76C342.51 239.72 338.27 255.45 337.74 257.42C328.92 289.42 347.85 327.09 383.15 347.76C383.42 347.92 385.62 349.21 385.89 349.38C386.86 349.93 387.96 350.2 388.99 350.13C384.92 343.9 372.68 325.19 368.61 318.95Z" id="b2cb2zXX7o"></path><path d="M523.3 334.59C502.35 358.23 477.24 375.41 450.51 384.42C446.55 385.75 414.92 396.4 410.97 397.73C411.18 401.14 413.41 403.58 416.25 403.53C419.29 403.52 443.6 403.47 446.64 403.46C496.18 403.61 543.09 361.4 559.16 302.22C559.28 301.76 560.3 298.08 560.42 297.62C560.85 295.99 560.81 294.3 560.31 292.83C552.91 301.18 530.7 326.24 523.3 334.59Z" id="d2AyTP0YEb"></path><path d="M490.17 189.58C496.19 161.29 494.9 132.72 486.43 106.75C485.17 102.92 475.13 72.2 473.88 68.36C476.61 66.9 479.75 67.53 481.35 69.86C483.09 72.33 497.02 92.04 498.76 94.5C527.34 134.54 522.03 192.76 486.03 234.12C485.75 234.45 483.52 237.03 483.24 237.35C482.24 238.48 480.92 239.26 479.51 239.56C481.64 229.56 488.04 199.57 490.17 189.58Z" id="c18QS8I92T"></path></defs><g><g><g><use xlink:href="#a29kMfCqQ8" opacity="1" fill="#5fa819" fill-opacity="1"></use><g><use xlink:href="#a29kMfCqQ8" opacity="1" fill-opacity="0" stroke="#000000" stroke-width="1" stroke-opacity="0"></use></g></g><g><use xlink:href="#e1XphkWZW" opacity="1" fill="#589c17" fill-opacity="1"></use><g><use xlink:href="#e1XphkWZW" opacity="1" fill-opacity="0" stroke="#000000" stroke-width="1" stroke-opacity="0"></use></g></g><g><use xlink:href="#d7eWoJBDl" opacity="1" fill="#589c17" fill-opacity="1"></use><g><use xlink:href="#d7eWoJBDl" opacity="1" fill-opacity="0" stroke="#000000" stroke-width="1" stroke-opacity="0"></use></g></g><g><g><use xlink:href="#a1KuUovrp7" opacity="1" fill-opacity="0" stroke="#08600e" stroke-width="14" stroke-opacity="1"></use></g></g><g><use xlink:href="#a8tRvXnl9" opacity="1" fill="#5fa819" fill-opacity="1"></use><g><use xlink:href="#a8tRvXnl9" opacity="1" fill-opacity="0" stroke="#000000" stroke-width="1" stroke-opacity="0"></use></g></g><g><use xlink:href="#a3yQDvwYD6" opacity="1" fill="#5fa819" fill-opacity="1"></use><g><use xlink:href="#a3yQDvwYD6" opacity="1" fill-opacity="0" stroke="#000000" stroke-width="1" stroke-opacity="0"></use></g></g><g><use xlink:href="#b2cb2zXX7o" opacity="1" fill="#589c17" fill-opacity="1"></use><g><use xlink:href="#b2cb2zXX7o" opacity="1" fill-opacity="0" stroke="#000000" stroke-width="1" stroke-opacity="0"></use></g></g><g><use xlink:href="#d2AyTP0YEb" opacity="1" fill="#4d8d0f" fill-opacity="1"></use><g><use xlink:href="#d2AyTP0YEb" opacity="1" fill-opacity="0" stroke="#000000" stroke-width="1" stroke-opacity="0"></use></g></g><g><use xlink:href="#c18QS8I92T" opacity="1" fill="#589c17" fill-opacity="1"></use><g><use xlink:href="#c18QS8I92T" opacity="1" fill-opacity="0" stroke="#000000" stroke-width="1" stroke-opacity="0"></use></g></g></g></g></svg>